<svg width="28" height="28" viewBox="0 0 28 28" fill="none" xmlns="http://www.w3.org/2000/svg">
<path d="M27.5 2.48529V25.5147C27.5 26.0412 27.2908 26.5462 26.9185 26.9185C26.5462 27.2908 26.0412 27.5 25.5147 27.5H2.48529C1.95876 27.5 1.45379 27.2908 1.08148 26.9185C0.709164 26.5462 0.5 26.0412 0.5 25.5147L0.5 2.48529C0.5 1.95876 0.709164 1.45379 1.08148 1.08148C1.45379 0.709164 1.95876 0.5 2.48529 0.5L25.5147 0.5C26.0412 0.5 26.5462 0.709164 26.9185 1.08148C27.2908 1.45379 27.5 1.95876 27.5 2.48529ZM8.44118 10.8235H4.47059V23.5294H8.44118V10.8235ZM8.79853 6.45588C8.80062 6.15554 8.74354 5.85773 8.63053 5.57945C8.51752 5.30117 8.35081 5.04787 8.13991 4.83402C7.92901 4.62017 7.67806 4.44996 7.40137 4.3331C7.12469 4.21624 6.8277 4.15502 6.52735 4.15294H6.45588C5.8451 4.15294 5.25934 4.39557 4.82746 4.82746C4.39557 5.25934 4.15294 5.8451 4.15294 6.45588C4.15294 7.06666 4.39557 7.65242 4.82746 8.08431C5.25934 8.51619 5.8451 8.75882 6.45588 8.75882C6.75625 8.76621 7.05512 8.71435 7.33543 8.60619C7.61575 8.49803 7.872 8.3357 8.08955 8.12847C8.3071 7.92124 8.48169 7.67318 8.60334 7.39845C8.72499 7.12372 8.79132 6.82772 8.79853 6.52735V6.45588ZM23.5294 15.8106C23.5294 11.9909 21.0994 10.5059 18.6853 10.5059C17.8949 10.4663 17.1079 10.6347 16.4028 10.9942C15.6977 11.3537 15.0993 11.8917 14.6671 12.5547H14.5559V10.8235H10.8235V23.5294H14.7941V16.7715C14.7367 16.0793 14.9547 15.3925 15.4008 14.8602C15.8469 14.3279 16.485 13.9931 17.1765 13.9285H17.3274C18.59 13.9285 19.5271 14.7226 19.5271 16.7238V23.5294H23.4976L23.5294 15.8106Z" fill="#9FA0A2"/>
</svg>
