<svg width="30" height="26" viewBox="0 0 30 26" fill="none" xmlns="http://www.w3.org/2000/svg">
<path d="M26.9287 6.88009C26.947 7.14457 26.947 7.40904 26.947 7.67595C26.947 15.8088 20.7556 25.1884 9.43449 25.1884V25.1836C6.09019 25.1884 2.81536 24.2305 0 22.4243C0.486289 22.4828 0.975015 22.512 1.46496 22.5132C4.23644 22.5157 6.9287 21.5858 9.10908 19.8734C6.47532 19.8234 4.16575 18.1062 3.35893 15.5992C4.28154 15.7771 5.23218 15.7405 6.13772 15.4931C3.2663 14.913 1.20049 12.3901 1.20049 9.46023C1.20049 9.43341 1.20049 9.40782 1.20049 9.38223C2.05606 9.85877 3.01402 10.1232 3.99391 10.1525C1.28946 8.34505 0.45582 4.74725 2.08897 1.93433C5.21389 5.77955 9.8245 8.11714 14.7739 8.36455C14.2779 6.22683 14.9555 3.98674 16.5545 2.48399C19.0335 0.153708 22.9324 0.273147 25.2626 2.7509C26.6411 2.47912 27.9622 1.97333 29.1712 1.25669C28.7118 2.68143 27.7502 3.89167 26.4656 4.66072C27.6856 4.5169 28.8775 4.19027 30 3.69179C29.1737 4.93006 28.1328 6.00867 26.9287 6.88009Z" fill="#9FA0A2"/>
</svg>
